<?xml version="1.0" encoding="UTF-8" standalone="no"?>
<svg
   xmlns:dc="http://purl.org/dc/elements/1.1/"
   xmlns:cc="http://creativecommons.org/ns#"
   xmlns:rdf="http://www.w3.org/1999/02/22-rdf-syntax-ns#"
   xmlns:svg="http://www.w3.org/2000/svg"
   xmlns="http://www.w3.org/2000/svg"
   viewBox="0 0 522.35999 733.28003"
   height="733.28003"
   width="522.35999"
   xml:space="preserve"
   id="svg2"
   version="1.1"><metadata
     id="metadata8"><rdf:RDF><cc:Work
         rdf:about=""><dc:format>image/svg+xml</dc:format><dc:type
           rdf:resource="http://purl.org/dc/dcmitype/StillImage" /></cc:Work></rdf:RDF></metadata><defs
     id="defs6" /><g
     transform="matrix(1.3333333,0,0,-1.3333333,0,733.28)"
     id="g10"><g
       transform="scale(0.1)"
       id="g12"><path
         id="path14"
         style="fill:#f6e1cc;fill-opacity:1;fill-rule:nonzero;stroke:none"
         d="m 2609.34,2848.35 c -48.5,13.3 -102.54,27.07 -160.24,40.61 252.63,783.15 526.78,1383.33 582.59,1865.31 51.44,444.23 -105.24,587.3 -310.27,579.53 -217.41,-8.23 -473.9,-337.69 -645.59,-766.13 -212.02,-529.06 -390.94,-1106.02 -681.1,-1607.45 -148.29,715.99 -204.26,995.85 -316.21,1555.58 -90.516,452.59 -210.25,844.71 -417.571,910.71 -195.504,62.23 -384.703,-33.81 -453.754,-475.65 -82.023,-524.84 69.051,-1256 257.653,-2191.59 C 495.359,2607.89 274.094,2397.35 212.309,2195.58 -56.4297,1317.93 240.559,315.711 1588.32,89.6094 2505.02,-64.1797 3350.2,309.93 3567.16,1201.79 c 246.2,1012.05 72.83,1363.91 -957.82,1646.56" /><path
         id="path16"
         style="fill:none;stroke:#b78c64;stroke-width:111.94499969;stroke-linecap:round;stroke-linejoin:round;stroke-miterlimit:10;stroke-dasharray:none;stroke-opacity:1"
         d="m 2609.34,2848.35 c -48.5,13.3 -102.54,27.07 -160.24,40.61 252.63,783.15 526.78,1383.33 582.59,1865.31 51.44,444.23 -105.24,587.3 -310.27,579.53 -217.41,-8.23 -473.9,-337.69 -645.59,-766.13 -212.02,-529.06 -390.94,-1106.02 -681.1,-1607.45 -148.29,715.99 -204.26,995.85 -316.21,1555.58 -90.516,452.59 -210.25,844.71 -417.571,910.71 -195.504,62.23 -384.703,-33.81 -453.754,-475.65 -82.023,-524.84 69.051,-1256 257.653,-2191.59 C 495.359,2607.89 274.094,2397.35 212.309,2195.58 -56.4297,1317.93 240.559,315.711 1588.32,89.6094 2505.02,-64.1797 3350.2,309.93 3567.16,1201.79 c 246.2,1012.05 72.83,1363.91 -957.82,1646.56 z" /><path
         id="path18"
         style="fill:#f6e1cc;fill-opacity:1;fill-rule:nonzero;stroke:none"
         d="m 2790.2,1288.62 c -38.29,-171.26 -229.72,-276.06 -429.98,-231.74 v 0 c -200.15,44.3 -322.02,225.74 -295,407.4 115.28,774.88 218.14,975.49 446.26,1440.42 80.9,164.88 277.52,253.67 469.24,181.12 188.95,-71.49 284,-375.55 222.87,-540.05 -223.34,-600.31 -273.91,-632.01 -413.39,-1257.15" /><path
         id="path20"
         style="fill:none;stroke:#b78c64;stroke-width:111.94499969;stroke-linecap:round;stroke-linejoin:miter;stroke-miterlimit:10;stroke-dasharray:none;stroke-opacity:1"
         d="m 2790.2,1288.62 c -38.29,-171.26 -229.72,-276.06 -429.98,-231.74 v 0 c -200.15,44.3 -322.02,225.74 -295,407.4 115.28,774.88 218.14,975.49 446.26,1440.42 80.9,164.88 277.52,253.67 469.24,181.12 188.95,-71.49 284,-375.55 222.87,-540.05 -223.34,-600.31 -273.91,-632.01 -413.39,-1257.15 z" /><path
         id="path22"
         style="fill:#f6e1cc;fill-opacity:1;fill-rule:nonzero;stroke:none"
         d="M 3567.16,1201.79 C 3350.2,309.93 2505.02,-64.1797 1588.32,89.6094 240.559,315.711 -131.051,1316.78 137.688,2194.42 c 61.785,201.78 229.808,435.44 365.332,509.46 285.406,155.88 1064.21,-39.56 1251.92,-111.3 187.7,-71.74 507.44,-234.74 567.43,-495.05 60,-260.31 6.34,-410.42 -179.93,-431.95 -186.26,-21.54 -561.96,140.6 -767.46,156.09 -205.49,15.49 208.96,-239.35 288.18,-536.69 79.23,-297.332 -213.2,-693.699 -213.2,-693.699" /><path
         id="path24"
         style="fill:none;stroke:#b78c64;stroke-width:111.94499969;stroke-linecap:round;stroke-linejoin:miter;stroke-miterlimit:10;stroke-dasharray:none;stroke-opacity:1"
         d="M 3567.16,1201.79 C 3350.2,309.93 2505.02,-64.1797 1588.32,89.6094 240.559,315.711 -131.051,1316.78 137.688,2194.42 c 61.785,201.78 229.808,435.44 365.332,509.46 285.406,155.88 1064.21,-39.56 1251.92,-111.3 187.7,-71.74 507.44,-234.74 567.43,-495.05 60,-260.31 6.34,-410.42 -179.93,-431.95 -186.26,-21.54 -561.96,140.6 -767.46,156.09 -205.49,15.49 208.96,-239.35 288.18,-536.69 79.23,-297.332 -213.2,-693.699 -213.2,-693.699" /><path
         id="path26"
         style="fill:#f6e1cc;fill-opacity:1;fill-rule:nonzero;stroke:none"
         d="M 3541.1,1224.3 C 3460.04,1045.22 3304.25,904.602 3110.61,956.371 v 0 c -193.53,51.739 -302.01,226.509 -277.01,395.309 76.54,516.84 177.64,680.17 353.62,1036.37 75.59,152.98 275.64,221.44 460.58,144.46 v 0 c 185.05,-77.01 251.1,-401.76 194.06,-554.53 -121.93,-326.52 -148.72,-417.8 -300.76,-753.68" /><path
         id="path28"
         style="fill:none;stroke:#b78c64;stroke-width:111.94499969;stroke-linecap:round;stroke-linejoin:miter;stroke-miterlimit:10;stroke-dasharray:none;stroke-opacity:1"
         d="M 3541.1,1224.3 C 3460.04,1045.22 3304.25,904.602 3110.61,956.371 v 0 c -193.53,51.739 -302.01,226.509 -277.01,395.309 76.54,516.84 177.64,680.17 353.62,1036.37 75.59,152.98 275.64,221.44 460.58,144.46 v 0 c 185.05,-77.01 251.1,-401.76 194.06,-554.53 -121.93,-326.52 -148.72,-417.8 -300.76,-753.68 z" /></g></g></svg>