<svg width="152" height="140" viewBox="0 0 152 140" fill="none" xmlns="http://www.w3.org/2000/svg">
<circle cx="115.6" cy="103.4" r="35" fill="white" stroke="#F2994A" stroke-width="2"/>
<path d="M124.569 89.456C120.49 88.3376 111.851 88.3987 108.084 89.5242C108.623 84.2898 106.946 83.7437 104.774 83.366C101.233 82.7502 98.3851 84.9056 98.0253 90.5586C97.9039 92.466 95.6642 95.0382 94.8995 97.5357C91.5733 108.399 95.2492 120.804 111.931 123.602C123.278 125.506 133.739 120.875 136.424 109.836C139.471 97.3096 137.326 92.9545 124.569 89.456Z" fill="#F5E2D0"/>
<path fill-rule="evenodd" clip-rule="evenodd" d="M124.569 89.456C120.49 88.3376 111.851 88.3987 108.084 89.5242C108.623 84.2898 106.946 83.7437 104.774 83.366C101.233 82.7502 98.3851 84.9056 98.0253 90.5586C97.9039 92.466 95.6642 95.0382 94.8995 97.5357C91.5733 108.399 95.2492 120.804 111.931 123.602C123.278 125.506 133.739 120.875 136.424 109.836C139.471 97.3096 137.326 92.9545 124.569 89.456Z" stroke="#BC9472" stroke-miterlimit="2" stroke-linecap="round"/>
<path d="M116.112 103.205C115.991 106.814 115.075 106.61 111.151 106.616C108.458 106.621 106.256 105.021 106.321 103.062C106.554 95.966 107.657 95.2559 108.546 88.1386C109.008 84.4437 111.472 82.4423 114.919 82.9348C117.312 83.2767 118.773 85.9765 118.4 87.8307C117.031 94.5974 116.336 96.3745 116.112 103.205Z" fill="#F5E2D0"/>
<path fill-rule="evenodd" clip-rule="evenodd" d="M116.112 103.205C115.991 106.814 115.075 106.61 111.151 106.616C108.458 106.621 106.256 105.021 106.321 103.062C106.554 95.966 107.657 95.2559 108.546 88.1386C109.008 84.4437 111.472 82.4423 114.919 82.9348C117.312 83.2767 118.773 85.9765 118.4 87.8307C117.031 94.5974 116.336 96.3745 116.112 103.205Z" stroke="#BC9472" stroke-miterlimit="2" stroke-linecap="round"/>
<path d="M125.723 103.693C125.645 105.547 123.663 107.08 121.262 107.099C118.863 107.118 117.075 105.54 117.001 103.606C116.684 95.3575 117.443 93.0486 119.084 87.722C119.666 85.833 121.742 84.4524 124.103 84.7437C126.431 85.031 128.171 87.9347 127.816 89.7729C126.518 96.4816 126.003 96.9279 125.723 103.693Z" fill="#F5E2D0"/>
<path fill-rule="evenodd" clip-rule="evenodd" d="M125.723 103.693C125.645 105.547 123.663 107.08 121.262 107.099C118.863 107.118 117.075 105.54 117.001 103.606C116.684 95.3575 117.443 93.0486 119.084 87.722C119.666 85.833 121.742 84.4524 124.103 84.7437C126.431 85.031 128.171 87.9347 127.816 89.7729C126.518 96.4816 126.003 96.9279 125.723 103.693Z" stroke="#BC9472" stroke-miterlimit="2" stroke-linecap="round"/>
<path d="M134.507 102.572C133.953 104.608 132.457 106.425 130.117 106.352C127.779 106.279 126.159 104.738 126.088 102.941C125.873 97.4399 126.691 95.5188 127.962 91.4351C128.508 89.6811 130.666 88.5016 132.96 88.8547C135.254 89.2079 136.704 92.3935 136.371 94.1012C135.66 97.7513 135.545 98.7544 134.507 102.572Z" fill="#F5E2D0"/>
<path fill-rule="evenodd" clip-rule="evenodd" d="M134.507 102.572C133.953 104.608 132.457 106.425 130.117 106.352C127.779 106.279 126.159 104.738 126.088 102.941C125.873 97.4399 126.691 95.5188 127.962 91.4351C128.508 89.6811 130.666 88.5016 132.96 88.8547C135.254 89.2079 136.704 92.3935 136.371 94.1012C135.66 97.7513 135.545 98.7544 134.507 102.572Z" stroke="#BC9472" stroke-miterlimit="2" stroke-linecap="round"/>
<path d="M136.424 109.836C133.739 120.875 123.278 125.506 111.931 123.602C95.2493 120.804 90.6498 108.413 93.976 97.5499C94.7408 95.0525 96.8205 92.1604 98.4979 91.2442C102.031 89.3147 111.67 91.7338 113.994 92.6217C116.317 93.5097 120.274 95.5272 121.017 98.7492C121.76 101.971 121.095 103.829 118.79 104.096C116.484 104.362 111.834 102.355 109.291 102.164C106.747 101.972 111.877 105.126 112.858 108.806C113.838 112.487 110.219 117.393 110.219 117.393" fill="#F5E2D0"/>
<path d="M136.424 109.836C133.739 120.875 123.278 125.506 111.931 123.602C95.2493 120.804 90.6498 108.413 93.976 97.5499C94.7408 95.0525 96.8205 92.1604 98.4979 91.2442C102.031 89.3147 111.67 91.7338 113.994 92.6217C116.317 93.5097 120.274 95.5272 121.017 98.7492C121.76 101.971 121.095 103.829 118.79 104.096C116.484 104.362 111.834 102.355 109.291 102.164C106.747 101.972 111.877 105.126 112.858 108.806C113.838 112.487 110.219 117.393 110.219 117.393" stroke="#BC9472" stroke-miterlimit="2" stroke-linecap="round"/>
<circle cx="36.4" cy="103.4" r="35" fill="white" stroke="#F2994A" stroke-width="2"/>
<path d="M45.3691 89.4542C41.2907 88.3357 32.6511 88.3968 28.8847 89.5223C29.4235 84.2879 27.7464 83.7418 25.5746 83.3641C22.0337 82.7483 19.1854 84.9037 18.8256 90.5568C18.7042 92.4642 16.4645 95.0363 15.6998 97.5338C12.3736 108.397 16.0495 120.802 32.7314 123.6C44.0779 125.504 54.5391 120.873 57.2245 109.834C60.2718 97.3077 58.126 92.9526 45.3691 89.4542Z" fill="#F5E2D0"/>
<path fill-rule="evenodd" clip-rule="evenodd" d="M45.3691 89.4542C41.2907 88.3357 32.6511 88.3968 28.8847 89.5223C29.4235 84.2879 27.7464 83.7418 25.5746 83.3641C22.0337 82.7483 19.1854 84.9037 18.8256 90.5568C18.7042 92.4642 16.4645 95.0363 15.6998 97.5338C12.3736 108.397 16.0495 120.802 32.7314 123.6C44.0779 125.504 54.5391 120.873 57.2245 109.834C60.2718 97.3077 58.126 92.9526 45.3691 89.4542Z" stroke="#BC9472" stroke-miterlimit="2" stroke-linecap="round"/>
<path d="M36.9119 103.205C36.7914 106.814 35.8755 106.61 31.951 106.616C29.2587 106.621 27.0562 105.021 27.1213 103.062C27.3544 95.966 28.457 95.2559 29.3467 88.1386C29.8085 84.4437 32.2718 82.4423 35.7191 82.9348C38.1126 83.2767 39.5737 85.9765 39.1998 87.8307C37.8316 94.5974 37.1363 96.3745 36.9119 103.205Z" fill="#F5E2D0"/>
<path fill-rule="evenodd" clip-rule="evenodd" d="M36.9119 103.205C36.7914 106.814 35.8755 106.61 31.951 106.616C29.2587 106.621 27.0562 105.021 27.1213 103.062C27.3544 95.966 28.457 95.2559 29.3467 88.1386C29.8085 84.4437 32.2718 82.4423 35.7191 82.9348C38.1126 83.2767 39.5737 85.9765 39.1998 87.8307C37.8316 94.5974 37.1363 96.3745 36.9119 103.205Z" stroke="#BC9472" stroke-miterlimit="2" stroke-linecap="round"/>
<path d="M46.5224 103.693C46.4449 105.547 44.4626 107.08 42.0623 107.099C39.6633 107.118 37.8747 105.54 37.8005 103.606C37.4839 95.3575 38.2429 93.0486 39.8836 87.722C40.4654 85.833 42.5414 84.4524 44.9032 84.7437C47.231 85.031 48.9707 87.9347 48.6158 89.7729C47.3174 96.4816 46.8023 96.9279 46.5224 103.693Z" fill="#F5E2D0"/>
<path fill-rule="evenodd" clip-rule="evenodd" d="M46.5224 103.693C46.4449 105.547 44.4626 107.08 42.0623 107.099C39.6633 107.118 37.8747 105.54 37.8005 103.606C37.4839 95.3575 38.2429 93.0486 39.8836 87.722C40.4654 85.833 42.5414 84.4524 44.9032 84.7437C47.231 85.031 48.9707 87.9347 48.6158 89.7729C47.3174 96.4816 46.8023 96.9279 46.5224 103.693Z" stroke="#BC9472" stroke-miterlimit="2" stroke-linecap="round"/>
<path d="M55.307 102.572C54.7535 104.608 53.2576 106.425 50.9177 106.352C48.5792 106.279 46.9591 104.738 46.8888 102.941C46.6737 97.4399 47.4914 95.5188 48.7623 91.4351C49.3082 89.6811 51.4668 88.5016 53.76 88.8547C56.0546 89.2079 57.5043 92.3935 57.1715 94.1012C56.4601 97.7513 56.3452 98.7544 55.307 102.572Z" fill="#F5E2D0"/>
<path fill-rule="evenodd" clip-rule="evenodd" d="M55.307 102.572C54.7535 104.608 53.2576 106.425 50.9177 106.352C48.5792 106.279 46.9591 104.738 46.8888 102.941C46.6737 97.4399 47.4914 95.5188 48.7623 91.4351C49.3082 89.6811 51.4668 88.5016 53.76 88.8547C56.0546 89.2079 57.5043 92.3935 57.1715 94.1012C56.4601 97.7513 56.3452 98.7544 55.307 102.572Z" stroke="#BC9472" stroke-miterlimit="2" stroke-linecap="round"/>
<path d="M57.2243 109.836C54.5389 120.875 44.0777 125.506 32.7313 123.602C16.0493 120.804 11.4499 108.413 14.776 97.5499C15.5408 95.0525 17.6206 92.1604 19.2979 91.2442C22.8306 89.3147 32.4703 91.7338 34.7936 92.6217C37.1169 93.5097 41.0744 95.5272 41.817 98.7492C42.5596 101.971 41.8954 103.829 39.5899 104.096C37.2844 104.362 32.6342 102.355 30.0907 102.164C27.5472 101.972 32.677 105.126 33.6576 108.806C34.6383 112.487 31.0187 117.393 31.0187 117.393" fill="#F5E2D0"/>
<path d="M57.2243 109.836C54.5389 120.875 44.0777 125.506 32.7313 123.602C16.0493 120.804 11.4499 108.413 14.776 97.5499C15.5408 95.0525 17.6206 92.1604 19.2979 91.2442C22.8306 89.3147 32.4703 91.7338 34.7936 92.6217C37.1169 93.5097 41.0744 95.5272 41.817 98.7492C42.5596 101.971 41.8954 103.829 39.5899 104.096C37.2844 104.362 32.6342 102.355 30.0907 102.164C27.5472 101.972 32.677 105.126 33.6576 108.806C34.6383 112.487 31.0187 117.393 31.0187 117.393" stroke="#BC9472" stroke-miterlimit="2" stroke-linecap="round"/>
<circle cx="76.9" cy="36.8" r="35" fill="white" stroke="#F2994A" stroke-width="2"/>
<path d="M85.8688 22.856C81.7905 21.7376 73.1508 21.7987 69.3845 22.9242C69.9233 17.6897 68.2461 17.1437 66.0744 16.766C62.5334 16.1502 59.6852 18.3056 59.3253 23.9586C59.2039 25.866 56.9643 28.4382 56.1996 30.9357C52.8733 41.7987 56.5492 54.2037 73.2312 57.0023C84.5776 58.9058 95.0388 54.2752 97.7242 43.2362C100.772 30.7096 98.6257 26.3544 85.8688 22.856Z" fill="#F5E2D0"/>
<path fill-rule="evenodd" clip-rule="evenodd" d="M85.8688 22.856C81.7905 21.7376 73.1508 21.7987 69.3845 22.9242C69.9233 17.6897 68.2461 17.1437 66.0744 16.766C62.5334 16.1502 59.6852 18.3056 59.3253 23.9586C59.2039 25.866 56.9643 28.4382 56.1996 30.9357C52.8733 41.7987 56.5492 54.2037 73.2312 57.0023C84.5776 58.9058 95.0388 54.2752 97.7242 43.2362C100.772 30.7096 98.6257 26.3544 85.8688 22.856Z" stroke="#BC9472" stroke-miterlimit="2" stroke-linecap="round"/>
<path d="M77.4114 36.6046C77.2909 40.2141 76.375 40.0098 72.4505 40.0161C69.7582 40.0205 67.5557 38.4207 67.6208 36.4624C67.8539 29.366 68.9565 28.6559 69.8462 21.5386C70.308 17.8437 72.7713 15.8423 76.2186 16.3348C78.6121 16.6767 80.0732 19.3765 79.6993 21.2307C78.3311 27.9974 77.6358 29.7745 77.4114 36.6046Z" fill="#F5E2D0"/>
<path fill-rule="evenodd" clip-rule="evenodd" d="M77.4114 36.6046C77.2909 40.2141 76.375 40.0098 72.4505 40.0161C69.7582 40.0205 67.5557 38.4207 67.6208 36.4624C67.8539 29.366 68.9565 28.6559 69.8462 21.5386C70.308 17.8437 72.7713 15.8423 76.2186 16.3348C78.6121 16.6767 80.0732 19.3765 79.6993 21.2307C78.3311 27.9974 77.6358 29.7745 77.4114 36.6046Z" stroke="#BC9472" stroke-miterlimit="2" stroke-linecap="round"/>
<path d="M87.0224 37.0931C86.9449 38.9466 84.9626 40.4798 82.5623 40.499C80.1633 40.5183 78.3747 38.9401 78.3005 37.0064C77.9839 28.7575 78.7429 26.4486 80.3836 21.122C80.9654 19.233 83.0414 17.8524 85.4032 18.1437C87.731 18.431 89.4707 21.3347 89.1158 23.1729C87.8174 29.8816 87.3023 30.3279 87.0224 37.0931Z" fill="#F5E2D0"/>
<path fill-rule="evenodd" clip-rule="evenodd" d="M87.0224 37.0931C86.9449 38.9466 84.9626 40.4798 82.5623 40.499C80.1633 40.5183 78.3747 38.9401 78.3005 37.0064C77.9839 28.7575 78.7429 26.4486 80.3836 21.122C80.9654 19.233 83.0414 17.8524 85.4032 18.1437C87.731 18.431 89.4707 21.3347 89.1158 23.1729C87.8174 29.8816 87.3023 30.3279 87.0224 37.0931Z" stroke="#BC9472" stroke-miterlimit="2" stroke-linecap="round"/>
<path d="M95.807 35.9722C95.2535 38.0078 93.7576 39.825 91.4177 39.7518C89.0792 39.6789 87.4591 38.1378 87.3888 36.341C87.1737 30.8399 87.9914 28.9188 89.2623 24.835C89.8082 23.081 91.9668 21.9016 94.26 22.2547C96.5546 22.6079 98.0043 25.7935 97.6715 27.5012C96.9601 31.1513 96.8452 32.1544 95.807 35.9722Z" fill="#F5E2D0"/>
<path fill-rule="evenodd" clip-rule="evenodd" d="M95.807 35.9722C95.2535 38.0078 93.7576 39.825 91.4177 39.7518C89.0792 39.6789 87.4591 38.1378 87.3888 36.341C87.1737 30.8399 87.9914 28.9188 89.2623 24.835C89.8082 23.081 91.9668 21.9016 94.26 22.2547C96.5546 22.6079 98.0043 25.7935 97.6715 27.5012C96.9601 31.1513 96.8452 32.1544 95.807 35.9722Z" stroke="#BC9472" stroke-miterlimit="2" stroke-linecap="round"/>
<path d="M97.7243 43.2362C95.0389 54.2752 84.5777 58.9058 73.2313 57.0023C56.5493 54.2037 51.9499 41.813 55.276 30.9499C56.0408 28.4524 58.1206 25.5604 59.7979 24.6442C63.3306 22.7147 72.9703 25.1337 75.2936 26.0217C77.6169 26.9097 81.5744 28.9272 82.317 32.1492C83.0596 35.3712 82.3954 37.2291 80.0899 37.4957C77.7844 37.7623 73.1342 35.7554 70.5907 35.5637C68.0472 35.372 73.177 38.5263 74.1576 42.2065C75.1383 45.8867 71.5187 50.7927 71.5187 50.7927" fill="#F5E2D0"/>
<path d="M97.7243 43.2362C95.0389 54.2752 84.5777 58.9058 73.2313 57.0023C56.5493 54.2037 51.9499 41.813 55.276 30.9499C56.0408 28.4524 58.1206 25.5604 59.7979 24.6442C63.3306 22.7147 72.9703 25.1337 75.2936 26.0217C77.6169 26.9097 81.5744 28.9272 82.317 32.1492C83.0596 35.3712 82.3954 37.2291 80.0899 37.4957C77.7844 37.7623 73.1342 35.7554 70.5907 35.5637C68.0472 35.372 73.177 38.5263 74.1576 42.2065C75.1383 45.8867 71.5187 50.7927 71.5187 50.7927" stroke="#BC9472" stroke-miterlimit="2" stroke-linecap="round"/>
</svg>
