<svg width="150" height="139" viewBox="0 0 150 139" fill="none" xmlns="http://www.w3.org/2000/svg">
<path d="M148.588 103.839C148.588 122.536 133.576 137.677 115.078 137.677C96.5804 137.677 81.5686 122.536 81.5686 103.839C81.5686 85.1411 96.5804 70 115.078 70C133.576 70 148.588 85.1411 148.588 103.839Z" fill="white" stroke="#F2994A" stroke-width="2"/>
<path d="M136.763 94.0847C135.291 93.0473 133.505 93.7786 131.954 96.2275C130.022 99.2788 126.54 105.112 126.526 105.105C128.077 100.513 129.628 93.4724 130.093 90.4113C130.644 86.7834 129.628 85.5136 127.921 85.0544C126.177 84.5848 124.322 87.1563 123.113 91.3297C121.872 95.6152 121.407 97.2988 119.639 102.537C119.632 102.536 119.623 102.534 119.617 102.533C119.546 95.9213 119.256 91.1737 119.08 87.1972C118.925 83.6769 117.217 81.7765 115.513 81.8403C113.706 81.9078 112.101 84.4422 111.946 88.2686C111.753 93.012 111.48 96.8396 111.635 102.656C109.929 97.1458 109.774 96.6866 108.223 92.401C106.932 88.8353 104.345 85.0544 102.484 85.2075C100.87 85.3402 99.5371 87.3503 100.313 91.0236C101.026 94.404 101.864 97.911 104.345 105.411C104.744 106.615 104.859 107.888 104.345 109.543C102.111 116.743 102.137 122.841 113.342 124.696C120.962 125.957 128.97 124.302 130.773 116.985C131.373 114.55 131.542 112.477 131.28 110.716C134.131 104.948 134.452 104.604 135.832 101.125C137.137 97.8334 137.848 94.8499 136.763 94.0847Z" fill="#F6E1CC"/>
<path d="M136.763 94.0847C135.291 93.0473 133.505 93.7786 131.954 96.2275C130.022 99.2788 126.54 105.112 126.526 105.105C128.077 100.513 129.628 93.4724 130.093 90.4113C130.644 86.7834 129.628 85.5136 127.921 85.0544C126.177 84.5848 124.322 87.1563 123.113 91.3297C121.872 95.6152 121.407 97.2988 119.639 102.537C119.632 102.536 119.623 102.534 119.617 102.533C119.546 95.9213 119.256 91.1737 119.08 87.1972C118.925 83.6769 117.217 81.7765 115.513 81.8403C113.706 81.9078 112.101 84.4422 111.946 88.2686C111.753 93.012 111.48 96.8396 111.635 102.656C109.929 97.1458 109.774 96.6866 108.223 92.401C106.932 88.8353 104.345 85.0544 102.484 85.2075C100.87 85.3402 99.5371 87.3503 100.313 91.0236C101.026 94.404 101.864 97.911 104.345 105.411C104.744 106.615 104.859 107.888 104.345 109.543C102.111 116.743 102.137 122.841 113.342 124.696C120.962 125.957 128.97 124.302 130.773 116.985C131.373 114.55 131.542 112.477 131.28 110.716C134.131 104.948 134.452 104.604 135.832 101.125C137.137 97.8334 137.848 94.8499 136.763 94.0847Z" stroke="#B78C64" stroke-miterlimit="10" stroke-linecap="round" stroke-linejoin="round"/>
<path d="M130.773 116.985C128.97 124.302 123.24 126.868 115.513 126.838C106.156 126.803 103.331 122.268 100.778 118.267C98.1412 114.135 96.4607 111.971 93.9533 109.084C92.0921 106.941 91.6731 104.724 93.3329 103.268C94.7288 102.043 97.831 102.962 99.5372 104.339C101.524 105.944 103.194 108.219 104.811 108.778C107.913 109.849 109.701 108.979 111.946 110.768C115.978 113.982 115.358 118.88 115.358 118.88" fill="#F6E1CC"/>
<path d="M130.773 116.985C128.97 124.302 123.24 126.868 115.513 126.838C106.156 126.803 103.331 122.268 100.778 118.267C98.1412 114.135 96.4607 111.971 93.9533 109.084C92.0921 106.941 91.6731 104.724 93.3329 103.268C94.7288 102.043 97.831 102.962 99.5372 104.339C101.524 105.944 103.194 108.219 104.811 108.778C107.913 109.849 109.701 108.979 111.946 110.768C115.978 113.982 115.358 118.88 115.358 118.88" stroke="#B78C64" stroke-miterlimit="10" stroke-linecap="round"/>
<path d="M68.6666 103.839C68.6666 122.536 53.6548 137.677 35.1568 137.677C16.6587 137.677 1.64697 122.536 1.64697 103.839C1.64697 85.1411 16.6587 70 35.1568 70C53.6548 70 68.6666 85.1411 68.6666 103.839Z" fill="white" stroke="#F2994A" stroke-width="2"/>
<path d="M43.3511 101.997C42.9033 101.884 42.4043 101.766 41.8715 101.651C44.2043 94.9641 46.7358 89.8397 47.2512 85.7246C47.7262 81.9317 46.2794 80.7102 44.3861 80.7765C42.3785 80.8468 40.0101 83.6597 38.4247 87.3178C36.4669 91.8349 34.8147 96.761 32.1353 101.042C30.766 94.9291 30.2492 92.5396 29.2154 87.7606C28.3796 83.8964 27.274 80.5485 25.3595 79.985C23.5542 79.4537 21.8072 80.2736 21.1695 84.0461C20.4121 88.5272 21.8072 94.7698 23.5487 102.758C23.8305 104.05 21.7873 105.848 21.2168 107.571C18.7352 115.064 21.4776 123.621 33.923 125.552C42.3878 126.865 50.1923 123.67 52.1957 116.056C54.4692 107.415 52.8683 104.411 43.3511 101.997" fill="#F6E1CC"/>
<path d="M43.3511 101.997C42.9033 101.884 42.4043 101.766 41.8715 101.651C44.2043 94.9641 46.7358 89.8397 47.2512 85.7246C47.7262 81.9317 46.2794 80.7102 44.3861 80.7765C42.3785 80.8468 40.0101 83.6597 38.4247 87.3178C36.4669 91.8349 34.8147 96.761 32.1353 101.042C30.766 94.9291 30.2492 92.5396 29.2154 87.7606C28.3796 83.8964 27.274 80.5485 25.3595 79.985C23.5542 79.4537 21.8072 80.2736 21.1695 84.0461C20.4121 88.5272 21.8072 94.7698 23.5487 102.758C23.8305 104.05 21.7873 105.848 21.2168 107.571C18.7352 115.064 21.4776 123.621 33.923 125.552C42.3878 126.865 50.1923 123.67 52.1957 116.056C54.4692 107.415 52.8683 104.411 43.3511 101.997V101.997Z" stroke="#B78C64" stroke-miterlimit="10" stroke-linecap="round" stroke-linejoin="round"/>
<path d="M44.6894 115.633C44.3294 117.159 42.53 118.093 40.6476 117.698C38.7661 117.303 37.6206 115.686 37.8746 114.067C38.9582 107.162 39.9251 105.374 42.0694 101.23C42.8299 99.761 44.6781 98.9697 46.4802 99.6163C48.2564 100.253 49.1498 102.963 48.5752 104.429C46.4758 109.779 46.0005 110.062 44.6894 115.633" fill="#F6E1CC"/>
<path d="M44.6894 115.633C44.3294 117.159 42.53 118.093 40.6476 117.698C38.7661 117.303 37.6206 115.686 37.8746 114.067C38.9582 107.162 39.9251 105.374 42.0694 101.23C42.8299 99.761 44.6781 98.9697 46.4802 99.6163C48.2564 100.253 49.1498 102.963 48.5752 104.429C46.4758 109.779 46.0005 110.062 44.6894 115.633V115.633Z" stroke="#B78C64" stroke-miterlimit="10" stroke-linecap="round"/>
<path d="M52.0213 116.102C49.9991 123.681 42.1213 126.86 33.5769 125.553C21.0146 123.632 17.5509 115.125 20.0557 107.667C20.6316 105.953 22.1977 103.967 23.4609 103.338C26.1212 102.014 33.3803 103.674 35.1299 104.284C36.8794 104.894 39.8597 106.279 40.4188 108.491C40.9781 110.703 40.4779 111.978 38.7417 112.161C37.0056 112.344 33.5038 110.966 31.5884 110.835C29.673 110.703 33.536 112.869 34.2744 115.395C35.0129 117.922 32.2872 121.29 32.2872 121.29" fill="#F6E1CC"/>
<path d="M52.0213 116.102C49.9991 123.681 42.1213 126.86 33.5769 125.553C21.0146 123.632 17.5509 115.125 20.0557 107.667C20.6316 105.953 22.1977 103.967 23.4609 103.338C26.1212 102.014 33.3803 103.674 35.1299 104.284C36.8794 104.894 39.8597 106.279 40.4188 108.491C40.9781 110.703 40.4779 111.978 38.7417 112.161C37.0056 112.344 33.5038 110.966 31.5884 110.835C29.673 110.703 33.536 112.869 34.2744 115.395C35.0129 117.922 32.2872 121.29 32.2872 121.29" stroke="#B78C64" stroke-miterlimit="10" stroke-linecap="round"/>
<path d="M52.2428 115.412C51.4714 116.939 49.9888 118.137 48.146 117.696C46.3042 117.255 45.2718 115.765 45.5098 114.326C46.2382 109.92 47.2003 108.528 48.875 105.491C49.5944 104.187 51.4982 103.604 53.2582 104.26C55.0192 104.916 55.6478 107.685 55.105 108.987C53.9446 111.771 53.6897 112.549 52.2428 115.412" fill="#F6E1CC"/>
<path d="M52.2428 115.412C51.4714 116.939 49.9888 118.137 48.146 117.696C46.3042 117.255 45.2718 115.765 45.5098 114.326C46.2382 109.92 47.2003 108.528 48.875 105.491C49.5944 104.187 51.4982 103.604 53.2582 104.26C55.0192 104.916 55.6478 107.685 55.105 108.987C53.9446 111.771 53.6897 112.549 52.2428 115.412V115.412Z" stroke="#B78C64" stroke-miterlimit="10" stroke-linecap="round"/>
<circle cx="75.9" cy="36.8" r="35" fill="white" stroke="#F2994A" stroke-width="2"/>
<path d="M84.8688 22.856C80.7905 21.7376 72.1508 21.7987 68.3845 22.9242C68.9233 17.6897 67.2461 17.1437 65.0744 16.766C61.5334 16.1502 58.6852 18.3056 58.3253 23.9586C58.2039 25.866 55.9643 28.4382 55.1996 30.9357C51.8733 41.7987 55.5492 54.2037 72.2312 57.0023C83.5776 58.9058 94.0388 54.2752 96.7242 43.2362C99.7715 30.7096 97.6257 26.3544 84.8688 22.856Z" fill="#F5E2D0"/>
<path fill-rule="evenodd" clip-rule="evenodd" d="M84.8688 22.856C80.7905 21.7376 72.1508 21.7987 68.3845 22.9242C68.9233 17.6897 67.2461 17.1437 65.0744 16.766C61.5334 16.1502 58.6852 18.3056 58.3253 23.9586C58.2039 25.866 55.9643 28.4382 55.1996 30.9357C51.8733 41.7987 55.5492 54.2037 72.2312 57.0023C83.5776 58.9058 94.0388 54.2752 96.7242 43.2362C99.7715 30.7096 97.6257 26.3544 84.8688 22.856Z" stroke="#BC9472" stroke-miterlimit="2" stroke-linecap="round"/>
<path d="M76.4114 36.6046C76.2909 40.2141 75.375 40.0098 71.4505 40.0161C68.7582 40.0205 66.5557 38.4207 66.6208 36.4624C66.8539 29.366 67.9565 28.6559 68.8462 21.5386C69.308 17.8437 71.7713 15.8423 75.2186 16.3348C77.6121 16.6767 79.0732 19.3765 78.6993 21.2307C77.3311 27.9974 76.6358 29.7745 76.4114 36.6046Z" fill="#F5E2D0"/>
<path fill-rule="evenodd" clip-rule="evenodd" d="M76.4114 36.6046C76.2909 40.2141 75.375 40.0098 71.4505 40.0161C68.7582 40.0205 66.5557 38.4207 66.6208 36.4624C66.8539 29.366 67.9565 28.6559 68.8462 21.5386C69.308 17.8437 71.7713 15.8423 75.2186 16.3348C77.6121 16.6767 79.0732 19.3765 78.6993 21.2307C77.3311 27.9974 76.6358 29.7745 76.4114 36.6046Z" stroke="#BC9472" stroke-miterlimit="2" stroke-linecap="round"/>
<path d="M86.0224 37.0931C85.9449 38.9466 83.9626 40.4798 81.5623 40.499C79.1633 40.5183 77.3747 38.9401 77.3005 37.0064C76.9839 28.7575 77.7429 26.4486 79.3836 21.122C79.9654 19.233 82.0414 17.8524 84.4032 18.1437C86.731 18.431 88.4707 21.3347 88.1158 23.1729C86.8174 29.8816 86.3023 30.3279 86.0224 37.0931Z" fill="#F5E2D0"/>
<path fill-rule="evenodd" clip-rule="evenodd" d="M86.0224 37.0931C85.9449 38.9466 83.9626 40.4798 81.5623 40.499C79.1633 40.5183 77.3747 38.9401 77.3005 37.0064C76.9839 28.7575 77.7429 26.4486 79.3836 21.122C79.9654 19.233 82.0414 17.8524 84.4032 18.1437C86.731 18.431 88.4707 21.3347 88.1158 23.1729C86.8174 29.8816 86.3023 30.3279 86.0224 37.0931Z" stroke="#BC9472" stroke-miterlimit="2" stroke-linecap="round"/>
<path d="M94.807 35.9722C94.2535 38.0078 92.7576 39.825 90.4177 39.7518C88.0792 39.6789 86.4591 38.1378 86.3888 36.341C86.1737 30.8399 86.9914 28.9188 88.2623 24.835C88.8082 23.081 90.9668 21.9016 93.26 22.2547C95.5546 22.6079 97.0043 25.7935 96.6715 27.5012C95.9601 31.1513 95.8452 32.1544 94.807 35.9722Z" fill="#F5E2D0"/>
<path fill-rule="evenodd" clip-rule="evenodd" d="M94.807 35.9722C94.2535 38.0078 92.7576 39.825 90.4177 39.7518C88.0792 39.6789 86.4591 38.1378 86.3888 36.341C86.1737 30.8399 86.9914 28.9188 88.2623 24.835C88.8082 23.081 90.9668 21.9016 93.26 22.2547C95.5546 22.6079 97.0043 25.7935 96.6715 27.5012C95.9601 31.1513 95.8452 32.1544 94.807 35.9722Z" stroke="#BC9472" stroke-miterlimit="2" stroke-linecap="round"/>
<path d="M96.7243 43.2362C94.0389 54.2752 83.5777 58.9058 72.2313 57.0023C55.5493 54.2037 50.9499 41.813 54.276 30.9499C55.0408 28.4524 57.1206 25.5604 58.7979 24.6442C62.3306 22.7147 71.9703 25.1337 74.2936 26.0217C76.6169 26.9097 80.5744 28.9272 81.317 32.1492C82.0596 35.3712 81.3954 37.2291 79.0899 37.4957C76.7844 37.7623 72.1342 35.7554 69.5907 35.5637C67.0472 35.372 72.177 38.5263 73.1576 42.2065C74.1383 45.8867 70.5187 50.7927 70.5187 50.7927" fill="#F5E2D0"/>
<path d="M96.7243 43.2362C94.0389 54.2752 83.5777 58.9058 72.2313 57.0023C55.5493 54.2037 50.9499 41.813 54.276 30.9499C55.0408 28.4524 57.1206 25.5604 58.7979 24.6442C62.3306 22.7147 71.9703 25.1337 74.2936 26.0217C76.6169 26.9097 80.5744 28.9272 81.317 32.1492C82.0596 35.3712 81.3954 37.2291 79.0899 37.4957C76.7844 37.7623 72.1342 35.7554 69.5907 35.5637C67.0472 35.372 72.177 38.5263 73.1576 42.2065C74.1383 45.8867 70.5187 50.7927 70.5187 50.7927" stroke="#BC9472" stroke-miterlimit="2" stroke-linecap="round"/>
</svg>
