<?xml version="1.0" encoding="UTF-8" standalone="no"?>
<svg
   xmlns:dc="http://purl.org/dc/elements/1.1/"
   xmlns:cc="http://creativecommons.org/ns#"
   xmlns:rdf="http://www.w3.org/1999/02/22-rdf-syntax-ns#"
   xmlns:svg="http://www.w3.org/2000/svg"
   xmlns="http://www.w3.org/2000/svg"
   viewBox="0 0 722.49335 731.97333"
   height="731.97333"
   width="722.49335"
   xml:space="preserve"
   id="svg2"
   version="1.1"><metadata
     id="metadata8"><rdf:RDF><cc:Work
         rdf:about=""><dc:format>image/svg+xml</dc:format><dc:type
           rdf:resource="http://purl.org/dc/dcmitype/StillImage" /></cc:Work></rdf:RDF></metadata><defs
     id="defs6" /><g
     transform="matrix(1.3333333,0,0,-1.3333333,0,731.97333)"
     id="g10"><g
       transform="scale(0.1)"
       id="g12"><path
         id="path14"
         style="fill:#f6e1cc;fill-opacity:1;fill-rule:nonzero;stroke:none"
         d="m 5301.04,3970.82 c -173.63,124.02 -384.27,36.6 -567.25,-256.18 -228.01,-364.81 -638.7,-1062.25 -640.45,-1061.32 182.98,548.96 365.97,1390.7 420.86,1756.67 65.06,433.74 -54.89,585.55 -256.18,640.45 -205.86,56.15 -424.69,-251.29 -567.25,-750.24 -146.39,-512.36 -201.29,-713.65 -409.92,-1339.92 -0.78,0.18 -1.82,0.38 -2.54,0.55 -8.41,790.41 -42.64,1358.01 -63.31,1833.43 -18.3,420.87 -219.79,648.07 -420.86,640.45 -213.24,-8.08 -402.57,-311.08 -420.87,-768.54 -22.69,-567.1 -54.9,-1024.72 -36.6,-1720.07 -201.28,658.75 -219.58,713.65 -402.57,1226.01 -152.25,426.31 -457.46,878.33 -677.05,860.03 -190.38,-15.87 -347.667,-256.18 -256.18,-695.35 84.2,-404.15 182.99,-823.43 475.77,-1720.06 47.01,-143.97 60.59,-296.18 0,-494.07 C 1213.07,1261.9 1216.13,532.859 2537.96,311.102 3437.02,160.27 4381.67,358.23 4594.45,1232.93 c 70.82,291.12 90.65,538.93 59.82,749.58 336.37,689.57 374.24,730.68 536.98,1146.58 154,393.55 237.88,750.24 109.79,841.73" /><path
         id="path16"
         style="fill:none;stroke:#b78c64;stroke-width:109.79199982;stroke-linecap:round;stroke-linejoin:round;stroke-miterlimit:10;stroke-dasharray:none;stroke-opacity:1"
         d="m 5301.04,3970.82 c -173.63,124.02 -384.27,36.6 -567.25,-256.18 -228.01,-364.81 -638.7,-1062.25 -640.45,-1061.32 182.98,548.96 365.97,1390.7 420.86,1756.67 65.06,433.74 -54.89,585.55 -256.18,640.45 -205.86,56.15 -424.69,-251.29 -567.25,-750.24 -146.39,-512.36 -201.29,-713.65 -409.92,-1339.92 -0.78,0.18 -1.82,0.38 -2.54,0.55 -8.41,790.41 -42.64,1358.01 -63.31,1833.43 -18.3,420.87 -219.79,648.07 -420.86,640.45 -213.24,-8.08 -402.57,-311.08 -420.87,-768.54 -22.69,-567.1 -54.9,-1024.72 -36.6,-1720.07 -201.28,658.75 -219.58,713.65 -402.57,1226.01 -152.25,426.31 -457.46,878.33 -677.05,860.03 -190.38,-15.87 -347.667,-256.18 -256.18,-695.35 84.2,-404.15 182.99,-823.43 475.77,-1720.06 47.01,-143.97 60.59,-296.18 0,-494.07 C 1213.07,1261.9 1216.13,532.859 2537.96,311.102 3437.02,160.27 4381.67,358.23 4594.45,1232.93 c 70.82,291.12 90.65,538.93 59.82,749.58 336.37,689.57 374.24,730.68 536.98,1146.58 154,393.55 237.88,750.24 109.79,841.73 z" /><path
         id="path18"
         style="fill:#f6e1cc;fill-opacity:1;fill-rule:nonzero;stroke:none"
         d="M 4594.45,1232.93 C 4381.67,358.23 3705.76,51.3906 2794.14,54.9219 1690.29,59.1992 1356.91,601.371 1055.77,1079.65 744.695,1573.71 546.434,1832.46 250.633,2177.56 c -219.5822,256.18 -269.0119,521.29 -73.195,695.35 164.687,146.39 530.66,36.59 731.945,-128.09 234.427,-191.81 431.387,-463.89 622.147,-530.66 365.98,-128.09 576.95,-24.02 841.74,-237.88 475.76,-384.27 402.57,-969.83 402.57,-969.83" /><path
         id="path20"
         style="fill:none;stroke:#b78c64;stroke-width:109.79199982;stroke-linecap:round;stroke-linejoin:miter;stroke-miterlimit:10;stroke-dasharray:none;stroke-opacity:1"
         d="M 4594.45,1232.93 C 4381.67,358.23 3705.76,51.3906 2794.14,54.9219 1690.29,59.1992 1356.91,601.371 1055.77,1079.65 744.695,1573.71 546.434,1832.46 250.633,2177.56 c -219.5822,256.18 -269.0119,521.29 -73.195,695.35 164.687,146.39 530.66,36.59 731.945,-128.09 234.427,-191.81 431.387,-463.89 622.147,-530.66 365.98,-128.09 576.95,-24.02 841.74,-237.88 475.76,-384.27 402.57,-969.83 402.57,-969.83" /></g></g></svg>